<svg width="115" height="17" viewBox="0 0 115 17" fill="none" xmlns="http://www.w3.org/2000/svg">
<g clip-path="url(#clip0)">
<path d="M30.2686 7.92439L27.1125 2.04919H30.1691L31.2248 4.33803C31.499 4.8948 31.7587 5.51815 32.1069 6.27827H32.1809C32.4612 5.51815 32.7148 4.8948 32.9587 4.33803L33.9222 2.04919H36.8489L33.6929 8.05269L37.0479 14.1518H33.9914L32.7937 11.6838C32.4892 11.0593 32.2089 10.4335 31.8849 9.69155H31.8109C31.5245 10.4347 31.2503 11.0593 30.976 11.6838L29.8403 14.1518H26.9135L30.2686 7.92439Z" fill="#292932"/>
<path d="M40.517 2.05035H48.1749V4.34524H43.2606V7.1509H47.459V9.44579H43.2606V14.153H40.517V2.05035Z" fill="#292932"/>
<path d="M65.3751 2.05035H69.7446C72.3182 2.05035 74.4283 2.94119 74.4283 5.81948C74.4283 8.60094 72.3182 9.798 69.7446 9.798H68.1174V14.1542H65.3738V2.05035H65.3751ZM69.5213 7.62537C70.964 7.62537 71.7394 7.00929 71.7394 5.81948C71.7394 4.62241 70.964 4.22299 69.5213 4.22299H68.1174V7.62537H69.5213ZM69.2434 9.07662L71.1412 7.3252L75.0132 14.153H71.9433L69.2434 9.07662Z" fill="#292932"/>
<path d="M78.7358 2.05035H81.7281L83.6975 7.42808C83.9402 8.1422 84.1525 8.91806 84.3964 9.66244H84.4704C84.7131 8.91806 84.9194 8.1422 85.1621 7.42808L87.0696 2.05035H90.0631V14.1542H87.5646V9.71207C87.5646 8.53195 87.7855 6.77084 87.9153 5.6004H87.8413L86.8463 8.46416L85.1305 13.1011H83.6077L81.8895 8.46416L80.9212 5.6004H80.8472C80.9758 6.77084 81.1979 8.53195 81.1979 9.71207V14.1542H78.7371V2.05035H78.7358Z" fill="#292932"/>
<path d="M93.9279 2.05035H101.531V4.34524H96.6714V6.77568H100.808V9.07057H96.6714V11.8593H101.717V14.1542H93.9279V2.05035Z" fill="#292932"/>
<path d="M105.362 2.05035H109.731C112.305 2.05035 114.415 2.94119 114.415 5.81948C114.415 8.60094 112.305 9.798 109.731 9.798H108.104V14.1542H105.361V2.05035H105.362ZM109.508 7.62537C110.951 7.62537 111.726 7.00929 111.726 5.81948C111.726 4.62241 110.951 4.22299 109.508 4.22299H108.104V7.62537H109.508ZM109.23 9.07662L111.128 7.3252L115 14.153H111.93L109.23 9.07662Z" fill="#292932"/>
<path d="M51.9826 9.82948L55.1509 2.05035H57.4054L61.0869 11.121C61.0869 11.121 54.3027 10.4335 52.1792 14.1554H49.7621C49.7621 14.1554 50.7098 9.55351 57.8956 9.11777L56.2781 5.00127L54.8244 8.6893C54.8244 8.6893 52.832 9.25939 51.9826 9.82948Z" fill="#292932"/>
<path d="M61.5213 12.1099L62.4362 14.1554H59.888L59.0386 12.1099H61.5213Z" fill="#292932"/>
<path d="M4.62189 0L0 8.05146L4.62189 16.1041H5.71882L10.3359 8.15797L5.73095 0H4.62189Z" fill="#292932"/>
<path d="M6.29156 0L10.6283 7.6242L12.4084 4.63334L9.6782 0H6.29156Z" fill="#292932"/>
<path d="M10.3359 0L12.7008 4.12377L14.4554 1.06029L13.8269 0H10.3359Z" fill="#292932"/>
<path d="M6.29156 16.1041H9.6782L12.2858 11.4889L10.604 8.69293L6.29156 16.1041Z" fill="#292932"/>
<path d="M10.9462 8.15796L12.6086 11.0568L14.3268 8.05145L12.6826 5.18042L10.9462 8.15796Z" fill="#292932"/>
<path d="M12.9738 4.6757L14.6556 7.62419L16.483 4.45783L14.7284 1.59528L12.9738 4.6757Z" fill="#292932"/>
<path d="M10.3359 16.1041H13.8572L14.3814 15.1951L12.5783 12.0966L10.3359 16.1041Z" fill="#292932"/>
<path d="M12.9738 11.6584L14.6738 14.6734L16.392 11.7201L14.6556 8.69293L12.9738 11.6584Z" fill="#292932"/>
<path d="M14.954 8.15795L16.7086 11.1851L18.4996 8.05143L16.7268 4.98553L14.954 8.15795Z" fill="#292932"/>
</g>
<defs>
<clipPath id="clip0">
<rect width="115" height="16.1041" fill="white"/>
</clipPath>
</defs>
</svg>
