<svg width="559" height="86" viewBox="0 0 559 86" fill="none" xmlns="http://www.w3.org/2000/svg">
<rect x="309" y="46" width="250" height="40" rx="20" fill="#3AAFA9" fill-opacity="0.5"/>
<path d="M146.605 38.3815L131.319 9.92517H146.123L151.236 21.0111C152.565 23.7078 153.822 26.727 155.509 30.4086H155.868C157.225 26.727 158.454 23.7078 159.635 21.0111L164.301 9.92517H178.477L163.191 39.003L179.441 68.5439H164.636L158.836 56.5903C157.36 53.5653 156.003 50.5344 154.434 46.9407H154.075C152.688 50.5403 151.36 53.5653 150.032 56.5903L144.531 68.5439H130.355L146.605 38.3815Z" fill="#3C525A"/>
<path d="M196.244 9.93103H233.334V21.0463H209.532V34.6354H229.867V45.7506H209.532V68.5498H196.244V9.93103Z" fill="#3C525A"/>
<path d="M316.643 9.93103H337.806C350.272 9.93103 360.492 14.2458 360.492 28.1867C360.492 41.6587 350.272 47.4566 337.806 47.4566H329.925V68.5556H316.637V9.93103H316.643ZM336.725 36.9335C343.713 36.9335 347.468 33.9495 347.468 28.1867C347.468 22.3888 343.713 20.4541 336.725 20.4541H329.925V36.9335H336.725ZM335.379 43.9626L344.571 35.4796L363.325 68.5497H348.456L335.379 43.9626Z" fill="#3C525A"/>
<path d="M381.356 9.93103H395.849L405.387 35.9779C406.563 39.4368 407.591 43.1946 408.773 46.8H409.131C410.307 43.1946 411.306 39.4368 412.481 35.9779L421.72 9.93103H436.219V68.5556H424.118V47.0404C424.118 41.3245 425.188 32.7946 425.816 27.1256H425.458L420.639 40.9962L412.328 63.4553H404.953L396.631 40.9962L391.941 27.1256H391.582C392.205 32.7946 393.281 41.3245 393.281 47.0404V68.5556H381.362V9.93103H381.356Z" fill="#3C525A"/>
<path d="M454.938 9.93103H491.764V21.0463H468.226V32.8181H488.261V43.9333H468.226V57.4404H492.663V68.5556H454.938V9.93103Z" fill="#3C525A"/>
<path d="M510.318 9.93103H531.481C543.947 9.93103 554.167 14.2458 554.167 28.1867C554.167 41.6587 543.947 47.4566 531.481 47.4566H523.6V68.5556H510.312V9.93103H510.318ZM530.4 36.9335C537.388 36.9335 541.143 33.9495 541.143 28.1867C541.143 22.3888 537.388 20.4541 530.4 20.4541H523.6V36.9335H530.4ZM529.054 43.9626L538.246 35.4796L557 68.5497H542.131L529.054 43.9626Z" fill="#3C525A"/>
<path d="M251.777 47.609L267.122 9.93103H278.042L295.873 53.8643C295.873 53.8643 263.014 50.5344 252.729 68.5615H241.021C241.021 68.5615 245.612 46.2724 280.416 44.1619L272.582 24.2237L265.541 42.0866C265.541 42.0866 255.891 44.8478 251.777 47.609Z" fill="#3AAFA9"/>
<path d="M297.977 58.6539L302.408 68.5615H290.066L285.952 58.6539H297.977Z" fill="#3AAFA9"/>
<path d="M26.2205 4L5 40.9972L26.2205 78H31.2568L52.455 41.4867L31.3125 4H26.2205Z" fill="#8CD0CD"/>
<path d="M33.8864 4L53.7976 39.0339L61.9705 25.2906L49.4354 4H33.8864Z" fill="#8CD0CD"/>
<path d="M52.455 4L63.3131 22.9491L71.369 8.87215L68.4831 4H52.455Z" fill="#8CD0CD"/>
<path d="M33.8864 78H49.4354L61.4078 56.7928L53.6862 43.945L33.8864 78Z" fill="#3AAFA9"/>
<path d="M55.2573 41.4866L62.8898 54.8072L70.7785 40.9972L63.2296 27.8046L55.2573 41.4866Z" fill="#3AAFA9"/>
<path d="M64.5667 25.4853L72.2883 39.0339L80.6784 24.4842L72.6225 11.3305L64.5667 25.4853Z" fill="#3AAFA9"/>
<path d="M52.455 78H68.6224L71.0292 73.8231L62.7504 59.5848L52.455 78Z" fill="#18837D"/>
<path d="M64.5667 57.5715L72.3718 71.426L80.2606 57.8551L72.2883 43.945L64.5667 57.5715Z" fill="#18837D"/>
<path d="M73.6588 41.4866L81.7147 55.3968L89.9377 40.9972L81.7983 26.9091L73.6588 41.4866Z" fill="#18837D"/>
</svg>
