<svg width="159" height="23" viewBox="0 0 159 23" fill="none" xmlns="http://www.w3.org/2000/svg">
<g clip-path="url(#clip0)">
<path d="M42.1227 10.8768L37.7907 2.81262H41.9861L43.4351 5.95422C43.8115 6.71843 44.1679 7.57402 44.6459 8.61735H44.7475C45.1323 7.57402 45.4803 6.71843 45.8151 5.95422L47.1375 2.81262H51.1547L46.8227 11.0529L51.4278 19.4244H47.2325L45.5886 16.0369C45.1706 15.1796 44.7858 14.3207 44.3411 13.3023H44.2395C43.8465 14.3224 43.4701 15.1796 43.0937 16.0369L41.5348 19.4244H37.5176L42.1227 10.8768Z" fill="white"/>
<path d="M56.1895 2.81427H66.7004V5.96417H59.9551V9.81516H65.7178V12.9651H59.9551V19.426H56.1895V2.81427Z" fill="white"/>
<path d="M90.3093 2.81427H96.3067C99.8393 2.81427 102.736 4.03702 102.736 7.98768C102.736 11.8054 99.8393 13.4485 96.3067 13.4485H94.0733V19.4277H90.3076V2.81427H90.3093ZM96.0003 10.4664C97.9806 10.4664 99.0448 9.62078 99.0448 7.98768C99.0448 6.34462 97.9806 5.79637 96.0003 5.79637H94.0733V10.4664H96.0003ZM95.6189 12.4583L98.2237 10.0544L103.538 19.426H99.3246L95.6189 12.4583Z" fill="white"/>
<path d="M108.648 2.81427H112.756L115.459 10.1956C115.792 11.1758 116.083 12.2407 116.418 13.2624H116.52C116.853 12.2407 117.136 11.1758 117.469 10.1956L120.087 2.81427H124.196V19.4277H120.767V13.3305C120.767 11.7107 121.07 9.29349 121.248 7.68698H121.146L119.781 11.6177L117.426 17.9823H115.335L112.977 11.6177L111.648 7.68698H111.546C111.723 9.29349 112.028 11.7107 112.028 13.3305V19.4277H108.65V2.81427H108.648Z" fill="white"/>
<path d="M129.5 2.81427H139.936V5.96417H133.266V9.30014H138.943V12.45H133.266V16.2778H140.191V19.4277H129.5V2.81427Z" fill="white"/>
<path d="M145.194 2.81427H151.192C154.724 2.81427 157.62 4.03702 157.62 7.98768C157.62 11.8054 154.724 13.4485 151.192 13.4485H148.958V19.4277H145.192V2.81427H145.194ZM150.885 10.4664C152.865 10.4664 153.93 9.62078 153.93 7.98768C153.93 6.34462 152.865 5.79637 150.885 5.79637H148.958V10.4664H150.885ZM150.504 12.4583L153.109 10.0544L158.423 19.426H154.209L150.504 12.4583Z" fill="white"/>
<path d="M71.9268 13.4917L76.2754 2.81427H79.3699L84.423 15.2644C84.423 15.2644 75.1112 14.3207 72.1966 19.4293H68.8789C68.8789 19.4293 70.1797 13.1129 80.0428 12.5148L77.8226 6.86462L75.8274 11.9267C75.8274 11.9267 73.0926 12.7092 71.9268 13.4917Z" fill="white"/>
<path d="M85.0199 16.6217L86.2757 19.4294H82.7782L81.6123 16.6217H85.0199Z" fill="white"/>
<path d="M6.92104 0L0.577148 11.0512L6.92104 22.1041H8.42665L14.7639 11.1974L8.44331 0H6.92104Z" fill="white"/>
<path d="M9.21289 0L15.1654 10.4648L17.6087 6.35961L13.8613 0H9.21289Z" fill="white"/>
<path d="M14.7637 0L18.0097 5.66018L20.4181 1.45533L19.5553 0H14.7637Z" fill="white"/>
<path d="M9.21289 22.1041H13.8613L17.4405 15.7694L15.1321 11.9317L9.21289 22.1041Z" fill="white"/>
<path d="M15.6016 11.1974L17.8833 15.1763L20.2416 11.0512L17.9849 7.11053L15.6016 11.1974Z" fill="white"/>
<path d="M18.3848 6.41775L20.6931 10.4648L23.2014 6.11871L20.7931 2.18964L18.3848 6.41775Z" fill="white"/>
<path d="M14.7637 22.1042H19.597L20.3164 20.8565L17.8415 16.6035L14.7637 22.1042Z" fill="white"/>
<path d="M18.3848 16.002L20.7181 20.1404L23.0765 16.0867L20.6931 11.9317L18.3848 16.002Z" fill="white"/>
<path d="M21.1025 11.1974L23.5109 15.3524L25.9691 11.0512L23.5358 6.84302L21.1025 11.1974Z" fill="white"/>
</g>
<defs>
<clipPath id="clip0">
<rect width="157.846" height="22.1041" fill="white" transform="translate(0.577148)"/>
</clipPath>
</defs>
</svg>
