<svg width="54" height="46" viewBox="0 0 54 46" fill="none" xmlns="http://www.w3.org/2000/svg">
<path d="M13.6317 0.5L0.28125 23.001L13.6317 45.5H16.7982L30.1387 23.2965L16.834 0.5H13.6317Z" fill="white"/>
<path d="M18.4528 0.5L30.9817 21.8033L36.1214 13.4482L28.2368 0.5H18.4528Z" fill="white"/>
<path d="M30.1385 0.5L36.9649 12.0221L42.033 3.46353L40.221 0.5H30.1385Z" fill="white"/>
<path d="M18.4528 45.5H28.2368L35.7693 32.6037L30.9121 24.7917L18.4528 45.5Z" fill="white"/>
<path d="M31.8971 23.2966L36.7026 31.3983L41.6653 23.001L36.9154 14.9741L31.8971 23.2966Z" fill="white"/>
<path d="M37.759 13.5672L42.6143 21.8032L47.8952 12.9549L42.8271 4.95679L37.759 13.5672Z" fill="white"/>
<path d="M30.1385 45.5001H40.3085L41.8222 42.9626L36.6129 34.3024L30.1385 45.5001Z" fill="white"/>
<path d="M37.759 33.0777L42.668 41.5019L47.6306 33.2486L42.6143 24.7917L37.759 33.0777Z" fill="white"/>
<path d="M43.4773 23.2965L48.5454 31.7533L53.7189 23.0009L48.5991 14.4327L43.4773 23.2965Z" fill="white"/>
</svg>
