<svg width="50" height="50" viewBox="0 0 50 50" fill="none" xmlns="http://www.w3.org/2000/svg">
<path d="M24.9998 3.99716C13.4008 3.99716 3.99713 13.4006 3.99713 25C3.99713 36.5994 13.4007 46.003 24.9998 46.003C36.5997 46.003 46.0031 36.5994 46.0031 25C46.0031 13.4006 36.5997 3.99716 24.9998 3.99716Z" fill="#EDF3FC" fill-opacity="0.1"/>
<path d="M42.6084 7.3915C37.9049 2.68799 31.6514 0.0976562 24.9998 0.0976562C18.3483 0.0976562 12.0949 2.68799 7.39141 7.3915C2.68789 12.095 0.0976562 18.3484 0.0976562 25C0.0976562 31.6517 2.68799 37.9052 7.39141 42.6086C12.0949 47.312 18.3482 49.9023 24.9998 49.9023C31.6515 49.9023 37.9049 47.3121 42.6084 42.6086C47.312 37.9052 49.9023 31.6517 49.9023 25C49.9023 18.3484 47.312 12.095 42.6084 7.3915ZM24.9998 49.1045C11.7086 49.1045 0.895605 38.2912 0.895605 25C0.895605 11.7088 11.7086 0.895508 24.9998 0.895508C38.2912 0.895508 49.1044 11.7087 49.1044 25C49.1044 38.2913 38.2912 49.1045 24.9998 49.1045Z" fill="#EDF3FC" fill-opacity="0.1"/>
<path d="M28.1064 14.404C27.797 14.3264 27.5145 14.1662 27.2889 13.9407C27.0633 13.7151 26.9031 13.4326 26.8255 13.1232L26.7985 13.0154L26.7718 13.1232C26.6941 13.4326 26.5339 13.7151 26.3083 13.9407C26.0827 14.1662 25.8001 14.3264 25.4907 14.404L25.383 14.4312L25.4907 14.4581C25.8002 14.5357 26.0828 14.6958 26.3084 14.9214C26.534 15.147 26.6941 15.4295 26.7718 15.739L26.7985 15.8467L26.8255 15.739C26.9031 15.4296 27.0632 15.147 27.2888 14.9214C27.5144 14.6958 27.797 14.5357 28.1064 14.4581L28.2144 14.4312L28.1064 14.404Z" fill="#330D84"/>
<path d="M10.3861 25.5214C9.89117 25.3973 9.43916 25.1412 9.07833 24.7804C8.71749 24.4195 8.46134 23.9675 8.33721 23.4726L8.29404 23.3004L8.25117 23.4726C8.12696 23.9675 7.87078 24.4195 7.50993 24.7803C7.14909 25.1411 6.6971 25.3972 6.20215 25.5214L6.02979 25.5647L6.20215 25.6078C6.69714 25.732 7.14917 25.9881 7.51002 26.349C7.87088 26.7098 8.12703 27.1619 8.25117 27.6569L8.29404 27.8286L8.33721 27.6569C8.46127 27.1618 8.71739 26.7098 9.07824 26.3489C9.43908 25.9881 9.89112 25.7319 10.3861 25.6078L10.5585 25.5647L10.3861 25.5214ZM20.8371 40.7993C20.3421 40.6752 19.8901 40.4191 19.5293 40.0583C19.1684 39.6974 18.9123 39.2455 18.7881 38.7505L18.745 38.5783L18.7021 38.7505C18.5778 39.2454 18.3216 39.6974 17.9608 40.0582C17.6 40.419 17.148 40.6751 16.6531 40.7993L16.4808 40.8425L16.6531 40.8857C17.1481 41.0099 17.6001 41.2661 17.9609 41.627C18.3218 41.9879 18.5779 42.4399 18.7021 42.9349L18.745 43.1068L18.7881 42.9349C18.9122 42.4399 19.1684 41.9878 19.5292 41.6269C19.8901 41.266 20.3421 41.0098 20.8371 40.8857L21.0096 40.8425L20.8371 40.7993Z" fill="#FFBE1B"/>
<path d="M42.3431 17.9252C41.9705 17.832 41.6302 17.6393 41.3585 17.3677C41.0869 17.0962 40.8941 16.7559 40.8008 16.3833L40.7684 16.2537L40.7357 16.3833C40.6424 16.7559 40.4497 17.0961 40.1781 17.3677C39.9065 17.6393 39.5662 17.832 39.1936 17.9252L39.0643 17.9577L39.1936 17.99C39.5662 18.0833 39.9065 18.276 40.1781 18.5477C40.4498 18.8193 40.6425 19.1597 40.7357 19.5323L40.7684 19.6615L40.8008 19.5323C40.894 19.1596 41.0868 18.8193 41.3584 18.5476C41.63 18.276 41.9704 18.0833 42.3431 17.99L42.4723 17.9577L42.3431 17.9252ZM37.3674 12.3496C36.7187 12.1871 36.1263 11.8515 35.6534 11.3787C35.1805 10.9058 34.8449 10.3135 34.6822 9.66484L34.6261 9.43945L34.569 9.66484C34.4065 10.3134 34.071 10.9058 33.5983 11.3786C33.1255 11.8515 32.5333 12.1871 31.8847 12.3496L31.6595 12.4063L31.8847 12.4629C32.5333 12.6252 33.1257 12.9607 33.5985 13.4336C34.0712 13.9064 34.4067 14.4988 34.569 15.1475L34.6261 15.3729L34.6822 15.1475C34.8447 14.4988 35.1804 13.9064 35.6533 13.4336C36.1262 12.9607 36.7187 12.6252 37.3674 12.4629L37.593 12.4063L37.3674 12.3496Z" fill="#5D8EF9"/>
<path d="M35.2883 16.917H13.8556C12.499 16.917 11.399 18.0168 11.399 19.3729V34.7818C11.399 36.1386 12.4989 37.2383 13.8556 37.2383H35.2883C36.6449 37.2383 37.7444 36.1386 37.7444 34.7818V19.3729C37.7444 18.0168 36.6449 16.917 35.2883 16.917Z" fill="#5D8EF9"/>
<path d="M28.1774 19.0292C28.1774 19.2234 28.2546 19.4097 28.392 19.5471C28.5293 19.6844 28.7156 19.7616 28.9099 19.7616C29.1041 19.7616 29.2904 19.6844 29.4278 19.5471C29.5651 19.4097 29.6423 19.2234 29.6423 19.0292C29.6423 18.8349 29.5651 18.6486 29.4278 18.5113C29.2904 18.3739 29.1041 18.2968 28.9099 18.2968C28.7156 18.2968 28.5293 18.3739 28.392 18.5113C28.2546 18.6486 28.1774 18.8349 28.1774 19.0292Z" fill="white"/>
<path d="M31.8829 18.2968C31.7867 18.2967 31.6915 18.3157 31.6026 18.3525C31.5137 18.3893 31.433 18.4432 31.3649 18.5112C31.2969 18.5793 31.243 18.66 31.2062 18.7489C31.1693 18.8377 31.1504 18.933 31.1504 19.0292C31.1504 19.174 31.1933 19.3156 31.2738 19.4361C31.3543 19.5565 31.4687 19.6504 31.6025 19.7058C31.7363 19.7613 31.8836 19.7758 32.0257 19.7475C32.1677 19.7193 32.2982 19.6495 32.4007 19.5471C32.5031 19.4447 32.5729 19.3142 32.6011 19.1721C32.6294 19.0301 32.6149 18.8828 32.5595 18.749C32.5041 18.6151 32.4102 18.5007 32.2898 18.4202C32.1693 18.3397 32.0278 18.2968 31.8829 18.2968Z" fill="white"/>
<path d="M34.1234 19.0292C34.1234 19.2234 34.2005 19.4097 34.3379 19.5471C34.4752 19.6844 34.6615 19.7616 34.8558 19.7616C35.05 19.7616 35.2363 19.6844 35.3737 19.5471C35.511 19.4097 35.5882 19.2234 35.5882 19.0292C35.5882 18.8349 35.511 18.6486 35.3737 18.5113C35.2363 18.3739 35.05 18.2968 34.8558 18.2968C34.6615 18.2968 34.4752 18.3739 34.3379 18.5113C34.2005 18.6486 34.1234 18.8349 34.1234 19.0292Z" fill="white"/>
<path d="M11.399 21.2771V34.782C11.399 36.1387 12.4989 37.2384 13.8556 37.2384H35.2883C36.6449 37.2384 37.7444 36.1387 37.7444 34.782V21.2771H11.399Z" fill="#6857E5"/>
<path d="M17.1881 25.6844C14.818 25.6844 12.8969 27.6057 12.8969 29.9758C12.8969 32.3456 14.8181 34.2668 17.1881 34.2668C19.5582 34.2668 21.4799 32.3455 21.4799 29.9758C21.4799 27.6056 19.5582 25.6844 17.1881 25.6844Z" fill="#FFBE1B"/>
<path d="M17.188 26.7543C15.4092 26.7543 13.9666 28.1962 13.9666 29.9757C13.9666 31.7545 15.4092 33.1968 17.188 33.1968C18.9672 33.1968 20.4094 31.7546 20.4094 29.9757C20.4095 28.1962 18.9673 26.7543 17.188 26.7543Z" fill="#FFE37B"/>
<path d="M18.4872 30.1765C18.3724 30.0441 18.2182 29.9567 18.0244 29.9151C18.0778 29.8913 18.1151 29.8742 18.1362 29.8638C18.157 29.8534 18.1944 29.8274 18.2478 29.7849C18.4059 29.666 18.4848 29.4841 18.4848 29.2397C18.4848 29.037 18.415 28.8556 18.2748 28.6945C18.1974 28.6079 18.082 28.5394 17.9282 28.4885C17.8802 28.4733 17.8315 28.4606 17.7822 28.4505V28.0529H17.2336V28.4129H16.8661V28.0529H16.3176V28.4129H15.7175V29.0023H16.1641V30.9477H15.7175V31.5384H16.3176V31.8976H16.8661V31.5384H17.2336V31.8976H17.7822V31.5246C18.0803 31.4923 18.2988 31.4008 18.4358 31.2471C18.5848 31.0805 18.6593 30.8886 18.6593 30.6707C18.6592 30.4737 18.6017 30.3096 18.4872 30.1765ZM16.8619 29.0024H17.1968C17.4028 29.0024 17.5487 29.0255 17.6352 29.0697C17.7217 29.1147 17.7648 29.2065 17.7648 29.3449C17.7648 29.4837 17.7181 29.574 17.6241 29.6153C17.5301 29.657 17.3864 29.6782 17.1926 29.6782H16.8619V29.0024ZM17.7894 30.8739C17.6898 30.9233 17.5399 30.9479 17.34 30.9479H16.8619V30.2283H17.273C17.5057 30.2283 17.6747 30.251 17.7805 30.2974C17.8864 30.3435 17.939 30.4388 17.939 30.5834C17.9391 30.7277 17.8893 30.8248 17.7894 30.8739Z" fill="white"/>
<path d="M32.8519 26.2109V34.3267L34.8942 34.5171V26.2109H32.8519ZM29.553 28.3055H31.5954V34.3267H29.553V28.3055ZM26.2543 30.2097H28.2966V34.3267H26.2543V30.2097ZM22.9554 32.1138H24.9978V34.3267H22.9554V32.1138Z" fill="#8AC9F9"/>
<path d="M34.335 22.6421C34.2422 22.5404 34.1067 22.4814 33.9733 22.4829L31.8324 22.4874C31.7029 22.4875 31.5788 22.5391 31.4873 22.6308C31.3958 22.7224 31.3445 22.8467 31.3446 22.9762C31.3448 23.1057 31.3963 23.2298 31.488 23.3213C31.5797 23.4128 31.7039 23.4641 31.8334 23.464H31.8344L32.7599 23.462L27.8485 26.8622L27.0989 26.1466C27.0186 26.0699 26.9145 26.0229 26.8038 26.0133C26.6932 26.0038 26.5826 26.0322 26.4902 26.094L22.5001 28.7635C22.4465 28.799 22.4004 28.8447 22.3645 28.8981C22.3285 28.9515 22.3035 29.0114 22.2909 29.0745C22.2782 29.1376 22.2781 29.2025 22.2906 29.2656C22.3031 29.3287 22.328 29.3887 22.3638 29.4422C22.3996 29.4957 22.4455 29.5415 22.4991 29.5772C22.5527 29.6128 22.6127 29.6375 22.6759 29.6499C22.739 29.6622 22.8039 29.662 22.867 29.6492C22.93 29.6363 22.9899 29.6112 23.0432 29.5751L26.7078 27.1233L27.462 27.8433C27.5433 27.9209 27.6489 27.9681 27.761 27.9769C27.8731 27.9857 27.9847 27.9555 28.0772 27.8915L33.3654 24.2303L33.2985 24.9421C33.2921 25.0061 33.2984 25.0708 33.3171 25.1324C33.3358 25.1941 33.3665 25.2514 33.4074 25.3011C33.4483 25.3508 33.4986 25.3919 33.5555 25.4221C33.6124 25.4522 33.6746 25.4709 33.7387 25.4769C33.8028 25.4829 33.8675 25.4762 33.929 25.4571C33.9905 25.4381 34.0476 25.407 34.097 25.3658C34.1465 25.3246 34.1873 25.274 34.2171 25.217C34.2469 25.1599 34.2652 25.0975 34.2708 25.0334L34.4603 23.0166C34.4667 22.9489 34.4588 22.8806 34.4373 22.8161C34.4157 22.7516 34.3808 22.6923 34.335 22.6421Z" fill="white"/>
</svg>
