<svg width="50" height="50" viewBox="0 0 50 50" fill="none" xmlns="http://www.w3.org/2000/svg">
<path d="M25.0004 3.99689C13.4007 3.99689 3.99744 13.4005 3.99744 25.0001C3.99744 36.5993 13.4007 46.0028 25.0004 46.0028C36.5993 46.0028 46.0029 36.5993 46.0029 25.0001C46.0029 13.4005 36.5993 3.99689 25.0004 3.99689Z" fill="#EDF3FC" fill-opacity="0.1"/>
<path d="M25.0004 0.0976562C11.2689 0.0976562 0.0976562 11.2688 0.0976562 25.0002C0.0976562 38.7313 11.2689 49.9023 25.0004 49.9023C38.7315 49.9023 49.9023 38.7313 49.9023 25.0002C49.9023 11.2688 38.7315 0.0976562 25.0004 0.0976562ZM25.0004 49.1046C11.7089 49.1046 0.895801 38.2914 0.895801 25.0002C0.895801 11.7088 11.709 0.89541 25.0004 0.89541C38.2916 0.89541 49.1043 11.7088 49.1043 25.0002C49.1043 38.2914 38.2915 49.1046 25.0004 49.1046Z" fill="#EDF3FC" fill-opacity="0.1"/>
<path d="M24.9996 15.3375C20.5261 15.3375 16.8989 18.9648 16.8989 23.4394C16.8989 27.9131 20.5262 31.5405 24.9996 31.5405C29.4751 31.5405 33.101 27.9131 33.101 23.4394C33.101 18.9648 29.4751 15.3375 24.9996 15.3375Z" fill="#8AC9F9"/>
<path d="M24.9997 8.5379C21.8839 8.5379 19.3491 11.0729 19.3491 14.1885V17.6366C19.9113 17.0888 20.55 16.6254 21.2451 16.2608V14.1886C21.2451 12.1186 22.9296 10.4342 24.9997 10.4342C27.0704 10.4342 28.7549 12.1186 28.7549 14.1886V16.2606C29.4501 16.6251 30.0887 17.0885 30.6509 17.6362V14.1886C30.6509 11.0729 28.116 8.5379 24.9997 8.5379Z" fill="#6857E5"/>
<path d="M24.9997 17.5355C21.7399 17.5355 19.0972 20.1782 19.0972 23.4393C19.0972 26.699 21.74 29.3425 24.9997 29.3425C28.2605 29.3425 30.9036 26.699 30.9036 23.4393C30.9036 20.1781 28.2605 17.5355 24.9997 17.5355Z" fill="#FFBE1B"/>
<path d="M24.9997 19.0078C22.5528 19.0078 20.5688 20.9912 20.5688 23.4392C20.5688 25.886 22.5528 27.8703 24.9997 27.8703C27.4476 27.8703 29.4312 25.886 29.4312 23.4392C29.4312 20.9912 27.4477 19.0078 24.9997 19.0078Z" fill="#FFE37B"/>
<path d="M26.7865 23.7156C26.6287 23.5332 26.4167 23.4128 26.1501 23.356C26.2237 23.323 26.2751 23.2994 26.3038 23.2846C26.3325 23.2707 26.3839 23.2346 26.4575 23.1771C26.675 23.0134 26.7839 22.7624 26.7839 22.4269C26.7839 22.1482 26.6876 21.8982 26.4949 21.6769C26.3876 21.5574 26.2292 21.4635 26.0178 21.3936C25.9518 21.3726 25.8846 21.3553 25.8167 21.3417V20.7946H25.0632V21.289H24.5563V20.7946H23.8017V21.289H22.9774V22.1014H23.5911V24.7761H22.9774V25.5881H23.8017V26.0829H24.5563V25.5881H25.0632V26.0829H25.8167V25.5694C26.2265 25.5259 26.5277 25.3996 26.7158 25.1888C26.9208 24.9593 27.0231 24.6946 27.0231 24.3947C27.0231 24.1243 26.9439 23.8984 26.7865 23.7156ZM24.5513 22.1014H25.0128C25.2956 22.1014 25.496 22.1316 25.6149 22.1931C25.7339 22.254 25.7935 22.381 25.7935 22.5718C25.7935 22.7619 25.7288 22.8864 25.5996 22.943C25.4702 23.0009 25.272 23.0295 25.0062 23.0295H24.5514V22.1014H24.5513ZM25.8274 24.6748C25.69 24.7428 25.4836 24.7761 25.2091 24.7761H24.5514V23.7863H25.1169C25.4373 23.7863 25.6691 23.8183 25.815 23.8812C25.9598 23.9451 26.033 24.0762 26.033 24.2752C26.033 24.4734 25.9644 24.6071 25.8274 24.6748Z" fill="white"/>
<path d="M16.3261 16.2506C15.6646 16.0849 15.0605 15.7427 14.5782 15.2604C14.096 14.7782 13.7538 14.1741 13.5881 13.5125L13.5301 13.2827L13.4724 13.5125C13.3066 14.1741 12.9642 14.7783 12.4819 15.2605C11.9996 15.7427 11.3953 16.085 10.7337 16.2506L10.5042 16.3084L10.7337 16.3661C11.3954 16.5317 11.9996 16.8739 12.482 17.3562C12.9643 17.8385 13.3066 18.4427 13.4724 19.1043L13.5301 19.3342L13.5881 19.1043C13.7537 18.4427 14.0959 17.8385 14.5781 17.3563C15.0604 16.874 15.6645 16.5317 16.3261 16.3661L16.5563 16.3084L16.3261 16.2506ZM17.8061 11.0896C17.4145 10.9915 17.0569 10.789 16.7714 10.5035C16.486 10.2181 16.2834 9.86048 16.1854 9.4689L16.1511 9.33276L16.1169 9.4689C16.0188 9.86052 15.8162 10.2181 15.5306 10.5036C15.2451 10.789 14.8875 10.9916 14.4958 11.0896L14.36 11.1239L14.4958 11.1581C14.8875 11.2561 15.2452 11.4587 15.5307 11.7442C15.8162 12.0296 16.0188 12.3873 16.1169 12.7789L16.1511 12.915L16.1854 12.7789C16.2834 12.3873 16.486 12.0297 16.7714 11.7442C17.0569 11.4587 17.4145 11.2561 17.8061 11.1581L17.9423 11.1239L17.8061 11.0896Z" fill="#FFBE1B"/>
<path d="M37.9656 26.7638C37.4988 26.6466 37.0725 26.405 36.7322 26.0647C36.3919 25.7243 36.1502 25.298 36.0331 24.8312L35.9923 24.6686L35.9518 24.8312C35.8346 25.2981 35.593 25.7244 35.2525 26.0648C34.9121 26.4051 34.4857 26.6467 34.0188 26.7638L33.8568 26.8043L34.0188 26.8449C34.4858 26.9619 34.9122 27.2034 35.2527 27.5438C35.5931 27.8842 35.8347 28.3106 35.9518 28.7775L35.9923 28.9399L36.0331 28.7775C36.1502 28.3106 36.3917 27.8843 36.7321 27.5439C37.0724 27.2036 37.4987 26.962 37.9656 26.8449L38.1284 26.8043L37.9656 26.7638ZM40.9828 21.5201C40.3073 21.3507 39.6904 21.0012 39.1979 20.5088C38.7055 20.0164 38.3559 19.3995 38.1865 18.724L38.128 18.4893L38.0691 18.724C37.8999 19.3997 37.5504 20.0167 37.0578 20.5092C36.5652 21.0016 35.9481 21.3511 35.2724 21.5201L35.0387 21.5791L35.2724 21.6384C35.9481 21.8073 36.5652 22.1566 37.0578 22.6489C37.5504 23.1413 37.8999 23.7583 38.0691 24.4339L38.128 24.6685L38.1865 24.4339C38.3559 23.7584 38.7054 23.1416 39.1979 22.6493C39.6904 22.1569 40.3073 21.8075 40.9828 21.6384L41.2178 21.5791L40.9828 21.5201Z" fill="#5D8EF9"/>
<path d="M26.1462 37.9633L25.8552 33.6096L25 32.8288L24.1446 33.6096L24.1444 33.6147L24.6008 34.0711L24.103 34.5689L24.6008 35.0667L24.0077 35.6597L23.8537 37.9634C23.009 38.3849 22.4284 39.2571 22.4284 40.2654C22.4284 41.6856 23.5798 42.837 25 42.837C26.4202 42.837 27.5716 41.6856 27.5716 40.2654C27.5716 39.257 26.9911 38.3848 26.1462 37.9633ZM24.9999 42.1696C24.4607 42.1696 24.0235 41.7324 24.0235 41.193C24.0235 40.6536 24.4607 40.2164 24.9999 40.2164C25.5393 40.2164 25.9766 40.6536 25.9766 41.193C25.9766 41.7324 25.5393 42.1696 24.9999 42.1696ZM38.0915 34.9254C37.5115 34.1006 36.5349 33.7211 35.6014 33.8624L32.859 30.4684L31.7102 30.3216L31.4597 31.4524L31.4623 31.4567L32.0982 31.5675L31.9774 32.261L32.6708 32.3818L32.5268 33.2081L33.726 35.1811C33.2774 36.0119 33.3042 37.0592 33.8842 37.884C34.7011 39.0458 36.3053 39.3253 37.467 38.5083C38.6289 37.6914 38.9084 36.0873 38.0915 34.9254ZM37.0831 37.9625C36.642 38.2727 36.0329 38.1665 35.7227 37.7253C35.4124 37.2841 35.5185 36.675 35.9597 36.3648C36.4009 36.0545 37.0101 36.1607 37.3203 36.6019C37.6306 37.0429 37.5244 37.6522 37.0831 37.9625ZM18.5403 31.4523L18.2898 30.3215L17.1409 30.4683L14.3986 33.8623C13.4652 33.721 12.4886 34.1005 11.9086 34.9253C11.0917 36.0872 11.3713 37.6913 12.533 38.5082C13.6947 39.3251 15.2988 39.0456 16.1158 37.8838C16.6958 37.059 16.7227 36.0117 16.274 35.1809L17.4733 33.2079L17.3292 32.3816L18.0227 32.2608L17.9019 31.5673L18.5377 31.4565L18.5403 31.4523ZM14.2773 37.7253C13.967 38.1666 13.3579 38.2727 12.9168 37.9625C12.4755 37.6522 12.3694 37.043 12.6796 36.6019C12.9899 36.1607 13.599 36.0545 14.0403 36.3648C14.4815 36.675 14.5875 37.2841 14.2773 37.7253Z" fill="#5D8EF9"/>
</svg>
