<svg width="50" height="50" viewBox="0 0 50 50" fill="none" xmlns="http://www.w3.org/2000/svg">
<path d="M25.0008 3.99707C13.4011 3.99707 3.99786 13.4011 3.99786 25.0004C3.99786 36.5997 13.4011 46.0029 25.0008 46.0029C36.5997 46.0029 46.003 36.5997 46.003 25.0004C46.003 13.4011 36.5997 3.99707 25.0008 3.99707Z" fill="#EDF3FC" fill-opacity="0.1"/>
<path d="M25.0008 0.0976562C11.2692 0.0976562 0.0976562 11.2689 0.0976562 25.0004C0.0976562 38.7314 11.2692 49.9023 25.0008 49.9023C38.7314 49.9023 49.9023 38.7314 49.9023 25.0004C49.9023 11.2689 38.7314 0.0976562 25.0008 0.0976562ZM25.0008 49.1042C11.7093 49.1042 0.895801 38.2914 0.895801 25.0004C0.895801 11.7089 11.7093 0.895801 25.0008 0.895801C38.2916 0.895801 49.1043 11.709 49.1043 25.0004C49.1043 38.2914 38.2915 49.1042 25.0008 49.1042Z" fill="#EDF3FC" fill-opacity="0.1"/>
<path d="M17.6641 24.5118H15.1937C15.2138 24.6718 15.2254 24.8346 15.2254 25C15.2254 25.1656 15.2138 25.3283 15.1937 25.4883H17.6641C17.6528 25.3259 17.6468 25.1631 17.6462 25.0002C17.6462 24.8359 17.6536 24.6734 17.6641 24.5118ZM34.8062 24.5118H32.3358C32.3463 24.6734 32.3538 24.8359 32.3538 25.0002C32.3538 25.1644 32.3465 25.3268 32.3358 25.4883H34.8062C34.7855 25.3264 34.7749 25.1634 34.7746 25.0001C34.7746 24.8346 34.7861 24.6719 34.8062 24.5118ZM25 15.1981C24.8344 15.1981 24.6717 15.1866 24.5117 15.1664V17.6641C24.6742 17.6528 24.8371 17.6468 25 17.6461C25.1642 17.6461 25.3267 17.6535 25.4882 17.6641V15.1664C25.3263 15.1872 25.1632 15.1977 25 15.1981ZM25 32.3539C24.8371 32.3533 24.6742 32.3473 24.5117 32.336V34.8336C24.6736 34.8129 24.8367 34.8023 25 34.802C25.1655 34.802 25.3282 34.8135 25.4882 34.8336V32.336C25.3257 32.3473 25.1629 32.3533 25 32.3539Z" fill="#330D84"/>
<path d="M25 17.6461C20.9387 17.6461 17.6462 20.9386 17.6462 25.0002C17.6462 29.0615 20.9387 32.3539 25 32.3539C29.0613 32.3539 32.3538 29.0616 32.3538 25.0002C32.3538 20.9387 29.0613 17.6461 25 17.6461Z" fill="#5D8EF9"/>
<path d="M25 19.4802C21.9513 19.4802 19.4799 21.9514 19.4799 25.0002C19.4799 28.0487 21.9514 30.52 25 30.52C28.0488 30.52 30.5201 28.0486 30.5201 25.0002C30.5201 21.9514 28.0488 19.4802 25 19.4802Z" fill="#8AC9F9"/>
<path d="M25 21.2891L22.7363 24.7427L25 26.4115L27.2637 24.743L25 21.2891Z" fill="white"/>
<path d="M25 26.9803L22.7363 25.1973L25 28.7107L27.2637 25.1973L25 26.9803Z" fill="white"/>
<path d="M25 7.42548C22.8536 7.42548 21.1138 9.16542 21.1138 11.3119C21.1138 13.4581 22.8536 15.198 25 15.198C27.1464 15.198 28.8862 13.4582 28.8862 11.3119C28.8862 9.16542 27.1463 7.42548 25 7.42548Z" fill="#FFBE1B"/>
<path d="M25 8.39484C23.3889 8.39484 22.0828 9.7007 22.0828 11.3119C22.0828 12.9229 23.3889 14.2289 25 14.2289C26.6111 14.2289 27.9171 12.9229 27.9171 11.3119C27.9171 9.7007 26.6111 8.39484 25 8.39484Z" fill="#FFE37B"/>
<path d="M25 9.35065L23.8036 11.1757L25 12.0578L26.1963 11.1758L25 9.35065Z" fill="white"/>
<path d="M25 12.3583L23.8036 11.416L25 13.2727L26.1963 11.416L25 12.3583Z" fill="white"/>
<path d="M25 34.8019C22.8536 34.8019 21.1138 36.5419 21.1138 38.6884C21.1138 40.8347 22.8536 42.5745 25 42.5745C27.1464 42.5745 28.8862 40.8347 28.8862 38.6884C28.8862 36.542 27.1463 34.8019 25 34.8019Z" fill="#FFBE1B"/>
<path d="M25 35.7713C23.3889 35.7713 22.0828 37.0772 22.0828 38.6884C22.0828 40.2993 23.3889 41.6054 25 41.6054C26.6111 41.6054 27.9171 40.2993 27.9171 38.6884C27.9171 37.0772 26.6111 35.7713 25 35.7713Z" fill="#FFE37B"/>
<path d="M25 36.7271L23.8036 38.5522L25 39.4343L26.1963 38.5523L25 36.7271Z" fill="white"/>
<path d="M25 39.7348L23.8036 38.7925L25 40.6492L26.1963 38.7925L25 39.7348Z" fill="white"/>
<path d="M21.0525 11.8978C21.0319 11.8371 20.9995 11.781 20.9571 11.7329C20.9148 11.6847 20.8634 11.6453 20.8059 11.617C20.7483 11.5887 20.6858 11.572 20.6218 11.5678C20.5578 11.5637 20.4936 11.5722 20.4329 11.5929C20.2429 11.6577 20.0509 11.7277 19.8626 11.801C19.8028 11.8243 19.7482 11.8591 19.7019 11.9035C19.6556 11.9478 19.6185 12.0009 19.5927 12.0596C19.5669 12.1183 19.553 12.1815 19.5516 12.2456C19.5502 12.3097 19.5615 12.3735 19.5848 12.4333C19.608 12.493 19.6428 12.5476 19.6872 12.5939C19.7316 12.6402 19.7846 12.6773 19.8433 12.7031C19.902 12.7289 19.9653 12.7429 20.0294 12.7443C20.0935 12.7456 20.1572 12.7344 20.217 12.7111C20.3925 12.6427 20.5694 12.5782 20.7476 12.5175C20.8702 12.4757 20.9712 12.387 21.0284 12.2708C21.0855 12.1546 21.0942 12.0204 21.0525 11.8978ZM13.9894 16.8796C13.9365 16.8434 13.877 16.8179 13.8143 16.8047C13.7515 16.7914 13.6868 16.7907 13.6238 16.8025C13.5607 16.8143 13.5006 16.8383 13.4469 16.8733C13.3932 16.9083 13.3469 16.9536 13.3106 17.0065C13.0821 17.3402 12.8679 17.6835 12.6685 18.0355C12.6366 18.0913 12.616 18.1529 12.608 18.2167C12.5999 18.2805 12.6045 18.3453 12.6215 18.4073C12.6386 18.4693 12.6677 18.5274 12.7072 18.5781C12.7468 18.6288 12.7959 18.6712 12.8519 18.7029C12.9079 18.7346 12.9696 18.7549 13.0334 18.7627C13.0972 18.7704 13.162 18.7655 13.2239 18.7482C13.2859 18.7309 13.3438 18.7015 13.3943 18.6617C13.4448 18.6219 13.487 18.5726 13.5185 18.5165C13.704 18.1887 13.9035 17.869 14.1163 17.5583C14.1894 17.4514 14.2172 17.3199 14.1934 17.1927C14.1696 17.0654 14.0962 16.9528 13.9894 16.8796ZM18.7018 12.8525C18.6703 12.7967 18.628 12.7476 18.5775 12.7082C18.527 12.6687 18.4692 12.6395 18.4074 12.6224C18.3456 12.6053 18.2811 12.6005 18.2174 12.6083C18.1538 12.6161 18.0923 12.6364 18.0365 12.668C17.6844 12.8673 17.341 13.0816 17.0072 13.3101C16.9032 13.3844 16.8324 13.4966 16.8101 13.6225C16.7878 13.7484 16.8158 13.878 16.888 13.9835C16.9603 14.089 17.071 14.162 17.1965 14.1867C17.3219 14.2115 17.4521 14.186 17.559 14.1159C17.8698 13.903 18.1896 13.7035 18.5174 13.5179C18.6301 13.4541 18.7128 13.3482 18.7474 13.2234C18.782 13.0986 18.7656 12.9652 18.7018 12.8525ZM15.4258 14.5675C15.1279 14.8411 14.8417 15.1272 14.5682 15.4252C14.4831 15.521 14.4391 15.6464 14.4457 15.7743C14.4523 15.9023 14.5088 16.0225 14.6032 16.1091C14.6976 16.1958 14.8223 16.2418 14.9503 16.2374C15.0783 16.233 15.1995 16.1784 15.2877 16.0855C15.5425 15.8081 15.809 15.5416 16.0864 15.2868C16.1336 15.2434 16.1719 15.1911 16.1989 15.133C16.2259 15.0748 16.2412 15.0119 16.244 14.9479C16.2467 14.8838 16.2368 14.8198 16.2148 14.7596C16.1927 14.6994 16.1591 14.6441 16.1157 14.5968C16.0723 14.5496 16.0201 14.5114 15.9619 14.4844C15.9038 14.4573 15.8409 14.442 15.7768 14.4393C15.7127 14.4366 15.6488 14.4465 15.5885 14.4685C15.5283 14.4905 15.473 14.5242 15.4258 14.5675ZM12.4334 19.5848C12.3127 19.5378 12.1783 19.5407 12.0597 19.5928C11.9412 19.6449 11.8481 19.7419 11.8011 19.8626C11.7277 20.0511 11.6583 20.2412 11.5931 20.4328C11.5724 20.4935 11.5639 20.5576 11.568 20.6216C11.5721 20.6856 11.5888 20.7481 11.6171 20.8057C11.6453 20.8632 11.6847 20.9146 11.7328 20.9569C11.781 20.9992 11.837 21.0317 11.8977 21.0523C11.9584 21.073 12.0225 21.0816 12.0865 21.0774C12.1505 21.0733 12.213 21.0566 12.2706 21.0283C12.3281 21.0001 12.3795 20.9607 12.4218 20.9126C12.4642 20.8644 12.4966 20.8084 12.5173 20.7477C12.578 20.5695 12.6426 20.3925 12.7109 20.217C12.7342 20.1573 12.7456 20.0936 12.7442 20.0295C12.7429 19.9654 12.7289 19.9021 12.7032 19.8434C12.6774 19.7847 12.6403 19.7317 12.594 19.6873C12.5477 19.6429 12.4931 19.6081 12.4334 19.5848ZM38.4068 20.4328C38.3416 20.2412 38.2722 20.0511 38.1988 19.8626C38.1518 19.7419 38.0588 19.6448 37.9402 19.5927C37.8216 19.5406 37.6872 19.5378 37.5665 19.5848C37.4459 19.6318 37.3488 19.7248 37.2967 19.8434C37.2446 19.962 37.2418 20.0964 37.2888 20.217C37.3571 20.3925 37.4217 20.5695 37.4824 20.7477C37.5153 20.8442 37.5775 20.928 37.6603 20.9874C37.7432 21.0467 37.8426 21.0786 37.9445 21.0787C37.9967 21.0787 38.0498 21.0703 38.1019 21.0524C38.1627 21.0318 38.2187 20.9993 38.2669 20.957C38.3151 20.9147 38.3545 20.8633 38.3828 20.8058C38.4111 20.7482 38.4278 20.6857 38.4319 20.6217C38.4361 20.5577 38.4275 20.4935 38.4068 20.4328ZM34.5748 14.5681C34.4792 14.4817 34.3534 14.4366 34.2247 14.4426C34.096 14.4485 33.9749 14.5051 33.8877 14.6C33.8006 14.6948 33.7545 14.8203 33.7594 14.9491C33.7643 15.0778 33.82 15.1994 33.9142 15.2873C34.1916 15.5422 34.4581 15.8087 34.7131 16.0862C34.7588 16.1361 34.8144 16.1759 34.8763 16.2031C34.9383 16.2303 35.0052 16.2443 35.0728 16.2442C35.1676 16.2442 35.2604 16.2166 35.3398 16.1648C35.4192 16.113 35.4817 16.0392 35.5199 15.9524C35.558 15.8656 35.57 15.7696 35.5545 15.676C35.539 15.5825 35.4965 15.4955 35.4324 15.4257C35.1587 15.1279 34.8726 14.8418 34.5748 14.5681ZM32.9934 13.3105C32.6597 13.082 32.3163 12.8677 31.9643 12.6684C31.8518 12.6074 31.7199 12.5929 31.5968 12.6282C31.4738 12.6635 31.3695 12.7457 31.3064 12.8571C31.2434 12.9685 31.2266 13.1002 31.2597 13.2239C31.2927 13.3475 31.373 13.4533 31.4833 13.5183C31.811 13.7039 32.1307 13.9033 32.4414 14.1162C32.4943 14.1525 32.5538 14.178 32.6165 14.1913C32.6793 14.2046 32.7441 14.2054 32.8071 14.1936C32.8702 14.1818 32.9303 14.1577 32.984 14.1227C33.0377 14.0876 33.084 14.0423 33.1202 13.9893C33.1565 13.9364 33.1819 13.8769 33.1952 13.8142C33.2084 13.7514 33.2092 13.6867 33.1974 13.6237C33.1856 13.5606 33.1616 13.5005 33.1266 13.4468C33.0916 13.3931 33.0463 13.3468 32.9934 13.3105ZM37.3318 18.0364C37.1325 17.6843 36.9183 17.341 36.6897 17.0072C36.6165 16.9003 36.5039 16.827 36.3766 16.8032C36.2493 16.7794 36.1178 16.8071 36.0109 16.8803C35.9041 16.9535 35.8307 17.0662 35.8069 17.1935C35.7831 17.3208 35.8109 17.4523 35.8841 17.5591C36.0969 17.8699 36.2964 18.1896 36.4819 18.5174C36.5135 18.5733 36.5557 18.6223 36.6063 18.6618C36.6568 18.7013 36.7146 18.7304 36.7764 18.7476C36.8382 18.7647 36.9028 18.7695 36.9664 18.7617C37.0301 18.7539 37.0915 18.7336 37.1474 18.702C37.2032 18.6704 37.2522 18.6281 37.2917 18.5776C37.3312 18.527 37.3603 18.4692 37.3775 18.4074C37.3946 18.3456 37.3994 18.281 37.3915 18.2174C37.3837 18.1537 37.3634 18.0922 37.3318 18.0364ZM30.1373 11.8009C29.9487 11.7275 29.7586 11.6581 29.567 11.5928C29.4444 11.5511 29.3102 11.5598 29.194 11.6169C29.0778 11.6741 28.9891 11.7751 28.9474 11.8977C28.9056 12.0203 28.9143 12.1545 28.9715 12.2707C29.0286 12.3869 29.1296 12.4756 29.2522 12.5173C29.4291 12.5775 29.6076 12.6426 29.7829 12.7109C29.9026 12.7535 30.0342 12.7478 30.1498 12.695C30.2654 12.6422 30.3559 12.5464 30.402 12.428C30.4481 12.3096 30.4463 12.1779 30.3968 12.0608C30.3474 11.9437 30.2543 11.8505 30.1373 11.8009ZM12.7109 29.7829C12.6426 29.6074 12.578 29.4305 12.5173 29.2522C12.4973 29.1907 12.4652 29.1337 12.4231 29.0847C12.3809 29.0356 12.3293 28.9955 12.2715 28.9665C12.2136 28.9376 12.1506 28.9204 12.086 28.916C12.0215 28.9116 11.9567 28.9201 11.8955 28.9409C11.8342 28.9618 11.7778 28.9946 11.7293 29.0375C11.6809 29.0804 11.6414 29.1325 11.6133 29.1907C11.5851 29.249 11.5688 29.3122 11.5653 29.3768C11.5619 29.4415 11.5712 29.5061 11.593 29.567C11.6581 29.7585 11.7282 29.9503 11.801 30.1373C11.8367 30.2289 11.8992 30.3077 11.9804 30.3632C12.0616 30.4187 12.1577 30.4485 12.256 30.4485C12.3355 30.4485 12.4137 30.4291 12.4839 30.392C12.5542 30.3549 12.6143 30.3013 12.6591 30.2357C12.7039 30.1701 12.7321 30.0946 12.7411 30.0157C12.7501 29.9368 12.7398 29.8569 12.7109 29.7829ZM13.5179 31.4827C13.4538 31.3706 13.3479 31.2885 13.2234 31.2543C13.0989 31.2201 12.9659 31.2366 12.8536 31.3002C12.7412 31.3638 12.6586 31.4693 12.6238 31.5936C12.589 31.7179 12.6049 31.851 12.668 31.9636C12.8673 32.3157 13.0815 32.6591 13.3101 32.9929C13.3462 33.0459 13.3925 33.0911 13.4462 33.1262C13.5 33.1612 13.5601 33.1853 13.6231 33.1971C13.6861 33.2089 13.7509 33.2081 13.8136 33.1948C13.8764 33.1816 13.9359 33.1561 13.9888 33.1198C14.0956 33.0466 14.169 32.934 14.1928 32.8067C14.2166 32.6794 14.1889 32.5478 14.1157 32.441C13.9029 32.1302 13.7035 31.8104 13.5179 31.4827ZM15.2868 33.9139C15.2435 33.8667 15.1912 33.8285 15.1331 33.8014C15.075 33.7744 15.0121 33.7591 14.948 33.7563C14.884 33.7536 14.82 33.7635 14.7598 33.7855C14.6995 33.8075 14.6442 33.8411 14.597 33.8845C14.5498 33.9278 14.5116 33.9801 14.4845 34.0382C14.4575 34.0963 14.4422 34.1592 14.4394 34.2233C14.4367 34.2873 14.4466 34.3513 14.4686 34.4115C14.4906 34.4717 14.5242 34.527 14.5676 34.5743C14.8411 34.8721 15.1272 35.1583 15.425 35.4319C15.515 35.5148 15.6329 35.5607 15.7553 35.5606C15.8536 35.5606 15.9497 35.531 16.0309 35.4755C16.1121 35.42 16.1746 35.3413 16.2103 35.2496C16.2461 35.158 16.2533 35.0577 16.231 34.9619C16.2088 34.8661 16.1582 34.7793 16.0857 34.7127C15.8083 34.4579 15.5417 34.1914 15.2868 33.9139ZM18.5165 36.4818C18.1888 36.2962 17.8691 36.0967 17.5583 35.8839C17.5054 35.8477 17.4459 35.8222 17.3831 35.809C17.3204 35.7958 17.2557 35.795 17.1926 35.8068C17.1296 35.8186 17.0695 35.8426 17.0158 35.8776C16.962 35.9126 16.9157 35.9579 16.8795 36.0108C16.8432 36.0637 16.8178 36.1232 16.8045 36.186C16.7913 36.2487 16.7905 36.3134 16.8023 36.3765C16.8141 36.4395 16.8382 36.4996 16.8732 36.5533C16.9082 36.6071 16.9534 36.6534 17.0063 36.6896C17.3401 36.9181 17.6835 37.1324 18.0354 37.3317C18.0912 37.3633 18.1527 37.3836 18.2164 37.3914C18.28 37.3993 18.3446 37.3945 18.4064 37.3773C18.4681 37.3602 18.526 37.3311 18.5765 37.2916C18.627 37.2522 18.6693 37.2031 18.7009 37.1473C18.7325 37.0915 18.7528 37.03 18.7606 36.9664C18.7684 36.9027 18.7637 36.8382 18.7465 36.7764C18.7294 36.7146 18.7003 36.6567 18.6608 36.6062C18.6213 36.5556 18.5723 36.5134 18.5165 36.4818ZM20.7477 37.4827C20.57 37.4221 20.3914 37.3569 20.2171 37.289C20.0966 37.2431 19.9629 37.2467 19.8451 37.299C19.7273 37.3512 19.635 37.448 19.5882 37.5681C19.5414 37.6882 19.544 37.8219 19.5954 37.9401C19.6469 38.0583 19.7429 38.1513 19.8627 38.199C20.0512 38.2724 20.2414 38.3417 20.4329 38.407C20.5555 38.4487 20.6896 38.44 20.8057 38.3828C20.9219 38.3257 21.0106 38.2247 21.0524 38.1022C21.0731 38.0415 21.0816 37.9773 21.0775 37.9134C21.0734 37.8494 21.0567 37.7868 21.0284 37.7293C21.0001 37.6718 20.9608 37.6204 20.9126 37.5781C20.8645 37.5357 20.8084 37.5033 20.7477 37.4827ZM30.4151 37.5667C30.3681 37.4461 30.2751 37.3491 30.1565 37.297C30.038 37.2449 29.9036 37.2421 29.7829 37.289C29.6074 37.3574 29.4304 37.4219 29.2521 37.4827C29.1913 37.5032 29.1351 37.5356 29.0868 37.5779C29.0384 37.6202 28.9989 37.6716 28.9705 37.7292C28.9421 37.7868 28.9253 37.8494 28.9211 37.9135C28.9169 37.9776 28.9255 38.0419 28.9462 38.1027C28.9669 38.1635 28.9994 38.2196 29.0418 38.2678C29.0842 38.3161 29.1357 38.3554 29.1934 38.3837C29.2511 38.412 29.3138 38.4286 29.3779 38.4326C29.442 38.4366 29.5062 38.4279 29.567 38.4071C29.7585 38.3418 29.9486 38.2724 30.1372 38.1991C30.197 38.1758 30.2516 38.141 30.2979 38.0966C30.3442 38.0523 30.3813 37.9992 30.4071 37.9405C30.4329 37.8818 30.4469 37.8185 30.4483 37.7544C30.4497 37.6903 30.4384 37.6265 30.4151 37.5667ZM32.4411 35.8842C32.1303 36.0971 31.8106 36.2966 31.4827 36.4821C31.3709 36.5463 31.289 36.6521 31.255 36.7765C31.2209 36.9009 31.2374 37.0336 31.3009 37.1459C31.3644 37.2581 31.4697 37.3407 31.5938 37.3755C31.7179 37.4104 31.8508 37.3948 31.9635 37.3321C32.3155 37.1328 32.6589 36.9186 32.9928 36.69C33.0996 36.6168 33.173 36.5042 33.1968 36.3769C33.2206 36.2496 33.1929 36.118 33.1197 36.0112C33.0835 35.9583 33.0372 35.913 32.9835 35.878C32.9298 35.843 32.8697 35.8189 32.8067 35.8071C32.7437 35.7953 32.679 35.7961 32.6162 35.8093C32.5535 35.8225 32.494 35.848 32.4411 35.8842ZM37.1473 31.299C37.0346 31.2352 36.9011 31.2188 36.7764 31.2534C36.6516 31.2879 36.5456 31.3707 36.4818 31.4834C36.2962 31.8111 36.0968 32.1307 35.884 32.4415C35.8473 32.4943 35.8214 32.554 35.8078 32.6169C35.7943 32.6798 35.7933 32.7448 35.8049 32.8081C35.8165 32.8714 35.8406 32.9318 35.8756 32.9858C35.9107 33.0398 35.9561 33.0863 36.0092 33.1227C36.0623 33.1591 36.1221 33.1846 36.1851 33.1978C36.2481 33.2109 36.3131 33.2115 36.3763 33.1995C36.4396 33.1875 36.4998 33.1631 36.5536 33.1277C36.6073 33.0923 36.6536 33.0466 36.6896 32.9933C36.9182 32.6596 37.1324 32.3163 37.3317 31.9643C37.3955 31.8516 37.4119 31.7182 37.3773 31.5934C37.3427 31.4687 37.2599 31.3628 37.1473 31.299ZM34.7127 33.9144C34.4579 34.1919 34.1914 34.4583 33.914 34.7131C33.8415 34.7796 33.7907 34.8665 33.7685 34.9623C33.7462 35.0581 33.7533 35.1585 33.7891 35.2501C33.8248 35.3418 33.8874 35.4205 33.9686 35.476C34.0498 35.5315 34.1459 35.5612 34.2443 35.5611C34.3624 35.5611 34.4807 35.5185 34.5745 35.4325C34.8724 35.1589 35.1585 34.8727 35.4321 34.5749C35.5171 34.479 35.5611 34.3537 35.5545 34.2258C35.5479 34.0978 35.4914 33.9776 35.397 33.891C35.3027 33.8044 35.1781 33.7583 35.0501 33.7627C34.9221 33.7671 34.8009 33.8215 34.7127 33.9144ZM38.1023 28.9474C38.0416 28.9267 37.9775 28.9182 37.9135 28.9223C37.8495 28.9264 37.7869 28.9431 37.7294 28.9714C37.6718 28.9997 37.6204 29.0391 37.5781 29.0873C37.5358 29.1354 37.5034 29.1915 37.4827 29.2522C37.422 29.4305 37.3574 29.6074 37.2891 29.7829C37.242 29.9035 37.2449 30.0379 37.297 30.1565C37.3491 30.2751 37.4461 30.3681 37.5668 30.4151C37.6875 30.4621 37.8219 30.4592 37.9404 30.4072C38.059 30.3551 38.152 30.258 38.199 30.1374C38.2724 29.9488 38.3418 29.7587 38.407 29.5671C38.4277 29.5064 38.4362 29.4423 38.4321 29.3783C38.428 29.3143 38.4113 29.2517 38.383 29.1942C38.3547 29.1366 38.3154 29.0852 38.2672 29.0429C38.2191 29.0005 38.163 28.9681 38.1023 28.9474Z" fill="#8AC9F9"/>
<path d="M11.3391 21.1138C9.19282 21.1138 7.45288 22.8537 7.45288 25.0001C7.45288 27.1465 9.19272 28.8863 11.3391 28.8863C13.4855 28.8863 15.2253 27.1465 15.2253 25.0001C15.2253 22.8537 13.4855 21.1138 11.3391 21.1138Z" fill="#FFBE1B"/>
<path d="M11.3392 22.0829C9.72805 22.0829 8.422 23.3889 8.422 25C8.422 26.6111 9.72805 27.9171 11.3392 27.9171C12.9503 27.9171 14.2563 26.6111 14.2563 25C14.2563 23.3889 12.9503 22.0829 11.3392 22.0829Z" fill="#FFE37B"/>
<path d="M11.3391 23.039L10.1428 24.864L11.3391 25.7459L12.5354 24.8642L11.3391 23.039Z" fill="white"/>
<path d="M11.3391 26.0465L10.1428 25.1042L11.3391 26.961L12.5354 25.1042L11.3391 26.0465Z" fill="white"/>
<path d="M38.6608 21.1138C36.5145 21.1138 34.7746 22.8537 34.7746 25.0002C34.7746 27.1465 36.5144 28.8863 38.6608 28.8863C40.8072 28.8863 42.5471 27.1465 42.5471 25.0002C42.5471 22.8537 40.8071 21.1138 38.6608 21.1138Z" fill="#FFBE1B"/>
<path d="M38.6608 22.083C37.0497 22.083 35.7437 23.3889 35.7437 25.0001C35.7437 26.611 37.0497 27.9171 38.6608 27.9171C40.272 27.9171 41.5779 26.611 41.5779 25.0001C41.5779 23.3889 40.272 22.083 38.6608 22.083Z" fill="#FFE37B"/>
<path d="M38.6609 23.039L37.4645 24.8641L38.6609 25.746L39.8572 24.8642L38.6609 23.039Z" fill="white"/>
<path d="M38.6609 26.0465L37.4645 25.1043L38.6609 26.9611L39.8572 25.1043L38.6609 26.0465Z" fill="white"/>
<path d="M37.2852 12.0682C36.8241 11.9526 36.4031 11.714 36.067 11.3778C35.7309 11.0417 35.4924 10.6206 35.3769 10.1595L35.3363 9.99884L35.2966 10.1595C35.181 10.6206 34.9423 11.0417 34.6061 11.3779C34.2699 11.714 33.8488 11.9526 33.3876 12.0682L33.2277 12.1083L33.3876 12.1484C33.8488 12.264 34.2699 12.5025 34.6062 12.8386C34.9424 13.1748 35.181 13.5959 35.2966 14.057L35.3363 14.2174L35.3769 14.057C35.4923 13.5959 35.7309 13.1748 36.0669 12.8387C36.403 12.5026 36.8241 12.264 37.2852 12.1484L37.4458 12.1083L37.2852 12.0682ZM39.9454 15.0769C39.6528 15.0035 39.3856 14.8522 39.1722 14.6389C38.9588 14.4257 38.8073 14.1586 38.7337 13.866L38.7084 13.7645L38.6831 13.866C38.6097 14.1586 38.4582 14.4258 38.2448 14.6391C38.0314 14.8523 37.7641 15.0036 37.4715 15.0769L37.3703 15.1022L37.4715 15.1282C37.7642 15.2014 38.0315 15.3527 38.2449 15.566C38.4583 15.7793 38.6098 16.0465 38.6831 16.3392L38.7084 16.4406L38.7337 16.3392C38.8071 16.0465 38.9587 15.7794 39.1721 15.5661C39.3855 15.3528 39.6527 15.2015 39.9454 15.1282L40.0465 15.1022L39.9454 15.0769Z" fill="#8AC9F9"/>
<path d="M19.2876 40.1886C18.8654 40.0829 18.4799 39.8646 18.1722 39.5568C17.8645 39.2491 17.6463 38.8635 17.5407 38.4413L17.5031 38.2947L17.4663 38.4413C17.3607 38.8636 17.1424 39.2493 16.8346 39.557C16.5267 39.8648 16.1411 40.0831 15.7188 40.1886L15.5723 40.2258L15.7188 40.2626C16.1411 40.368 16.5268 40.5863 16.8346 40.8941C17.1425 41.2019 17.3608 41.5876 17.4663 42.0099L17.5031 42.1567L17.5407 42.0099C17.6462 41.5877 17.8645 41.2021 18.1722 40.8943C18.4799 40.5865 18.8654 40.3682 19.2876 40.2626L19.4349 40.2258L19.2876 40.1886Z" fill="#FFBE1B"/>
<path d="M19.3262 19.3456C19.014 19.2673 18.729 19.1058 18.5015 18.8783C18.2739 18.6508 18.1124 18.3657 18.0342 18.0536L18.0074 17.9454L17.98 18.0536C17.9018 18.3658 17.7404 18.6509 17.5128 18.8784C17.2852 19.106 17.0002 19.2674 16.688 19.3456L16.5798 19.3727L16.688 19.4003C17.0001 19.4783 17.2852 19.6397 17.5128 19.8672C17.7404 20.0947 17.9018 20.3797 17.98 20.6919L18.0074 20.8005L18.0342 20.6919C18.1124 20.3798 18.2739 20.0948 18.5015 19.8673C18.729 19.6399 19.0141 19.4784 19.3262 19.4003L19.4348 19.3727L19.3262 19.3456ZM21.7704 17.1762C21.5699 17.126 21.3867 17.0222 21.2406 16.876C21.0944 16.7298 20.9906 16.5467 20.9403 16.3462L20.9232 16.2766L20.9054 16.3462C20.8552 16.5468 20.7514 16.73 20.6052 16.8762C20.459 17.0224 20.2758 17.1261 20.0752 17.1762L20.0057 17.1938L20.0752 17.2117C20.2757 17.2618 20.4589 17.3655 20.6051 17.5116C20.7513 17.6578 20.8551 17.8409 20.9054 18.0414L20.9232 18.1113L20.9403 18.0414C20.9907 17.8409 21.0945 17.6579 21.2407 17.5118C21.3868 17.3657 21.5699 17.262 21.7704 17.2117L21.8403 17.1938L21.7704 17.1762Z" fill="#5D8EF9"/>
</svg>
