<svg width="64" height="64" viewBox="0 0 64 64" fill="none" xmlns="http://www.w3.org/2000/svg">
<circle cx="32" cy="32" r="32" fill="#3AAFA9"/>
<path d="M22.4936 16L13 32.0007L22.4936 48H24.7454L34.232 32.2109L24.7709 16H22.4936Z" fill="white"/>
<path d="M25.9219 16L34.8314 31.149L38.4862 25.2076L32.8794 16H25.9219Z" fill="white"/>
<path d="M34.2319 16L39.0862 24.1935L42.6902 18.1074L41.4017 16H34.2319Z" fill="white"/>
<path d="M25.9219 48H32.8794L38.2359 38.8293L34.7819 33.2741L25.9219 48Z" fill="white"/>
<path d="M35.4824 32.2109L38.8997 37.9721L42.4287 32.0007L39.051 26.2927L35.4824 32.2109Z" fill="white"/>
<path d="M39.6509 25.2922L43.1035 31.149L46.8588 24.8568L43.2548 19.1693L39.6509 25.2922Z" fill="white"/>
<path d="M34.2319 48H41.4639L42.5403 46.1956L38.8359 40.0372L34.2319 48Z" fill="white"/>
<path d="M39.6509 39.1664L43.1417 45.1569L46.6707 39.2879L43.1035 33.2741L39.6509 39.1664Z" fill="white"/>
<path d="M43.7173 32.2109L47.3212 38.2246L51.0002 32.0007L47.3594 25.9078L43.7173 32.2109Z" fill="white"/>
</svg>
