<?xml version="1.0" standalone="no"?><!DOCTYPE svg PUBLIC "-//W3C//DTD SVG 1.1//EN" "http://www.w3.org/Graphics/SVG/1.1/DTD/svg11.dtd"><svg t="1612694168587" class="icon" viewBox="0 0 1024 1024" version="1.1" xmlns="http://www.w3.org/2000/svg" p-id="1032" xmlns:xlink="http://www.w3.org/1999/xlink" width="200" height="200"><defs><style type="text/css"></style></defs><path d="M510.58460445 513.41539555zM6.41820445 513.41539555c0 278.44152889 225.72259555 504.16526222 504.16526222 504.16526223s504.16526222-225.72259555 504.16526222-504.16526223-225.72259555-504.16526222-504.16526222-504.16526222-504.16526222 225.72259555-504.16526222 504.16526222z" fill="#DE2910" p-id="1033"></path><path d="M342.86819555 265.70979555l48.61041778 143.42599112h157.22154667l-127.38218667 93.20903111 47.16544 142.29959111-125.45706666-84.54712889-125.61635556 84.54712889 47.16544-142.29959111-126.41735111-93.20903111h157.22154667l47.48856888-143.42599112zM847.42257778 551.75509333l15.72295111 46.36672h51.01681778l-41.39121778 30.31836445 15.40209778 46.04472889-40.74723556-27.27139556-40.58908444 27.27139556 15.24508444-46.04472889-40.91107556-30.31836445h50.85525334l15.40209778-46.36672zM813.25169778 339.83032889l34.81258667 34.65329778 45.56344888-22.46087112-23.58158222 45.24145778 34.17088 34.65329778-48.44999111-6.57863111-24.38599111 42.51420445-6.73678222-47.9698489-50.21240889-8.98616888 45.71704889-22.45973334-6.89720889-48.61155555zM647.04398222 218.38392889l46.20629333 16.68209778 31.76675556-39.78808889-2.09009778 51.17838222 45.40302222 16.84707555-46.68302222 14.59882667-4.01294222 48.77312-26.4704-40.58908444-49.24871111 13.15384889 31.92490667-39.78808889-26.79694222-41.06922667zM647.04398222 722.93944889l46.20629333 16.84366222 31.76675556-39.78695111-2.09009778 51.17724445 45.40302222 16.84366222-46.68302222 14.59882666-4.01294222 48.93127112-26.4704-40.74723556-49.24871111 12.99456 31.92490667-39.78695111-26.79694222-41.07264z" fill="#FFDC00" p-id="1034"></path></svg>