<svg width="20" height="20" viewBox="0 0 20 20" fill="none" xmlns="http://www.w3.org/2000/svg">
<path d="M15.5221 6.67801C15.5221 3.02601 12.5741 0.100006 8.88907 0.100006C5.20407 0.100006 2.25607 3.02601 2.25607 6.67801C2.25607 9.16401 3.58707 11.276 5.64407 12.376C2.83907 13.476 0.705066 15.885 0.111066 18.954C0.0340665 19.317 0.254066 19.757 0.705066 19.834H0.848066C1.22207 19.834 1.50807 19.614 1.58507 19.251C2.24507 15.819 5.27007 13.333 8.81207 13.256H8.95507C12.5741 13.256 15.5221 10.33 15.5221 6.67801ZM3.73007 6.67801C3.73007 3.82901 6.01807 1.56301 8.88907 1.56301C11.7601 1.56301 14.0481 3.82901 14.0481 6.67801C14.0481 9.45001 11.7601 11.716 8.96607 11.793H8.74607C5.94107 11.716 3.73007 9.45001 3.73007 6.67801ZM19.8671 14.862C19.7901 14.565 19.5701 14.422 19.2731 14.356L17.3591 14.059L16.4791 12.233C16.3361 11.936 16.1051 11.793 15.8191 11.793C15.5221 11.793 15.3021 11.936 15.1591 12.233L14.2791 14.059L12.3651 14.356C12.0681 14.433 11.8481 14.576 11.7711 14.862C11.6941 15.159 11.7711 15.368 11.9141 15.588L13.3111 16.974L12.9371 19.02C12.8601 19.317 13.0141 19.603 13.2341 19.746C13.4541 19.889 13.7511 19.889 14.0481 19.823L15.7421 18.877L17.4361 19.823C17.5791 19.9 17.6561 19.9 17.8101 19.9C17.9641 19.9 18.1071 19.823 18.2501 19.757C18.4701 19.614 18.6241 19.317 18.5471 19.031L18.2501 16.985L19.6471 15.599C19.8671 15.368 19.9441 15.082 19.8671 14.862ZM16.9961 16.248C16.8531 16.391 16.7761 16.611 16.7761 16.908L16.9191 17.788L16.1821 17.425C16.0391 17.348 15.9621 17.348 15.8081 17.348C15.6651 17.348 15.5881 17.348 15.4341 17.425L14.6971 17.788L14.8401 16.908C14.9171 16.688 14.8401 16.468 14.6201 16.248L13.9601 15.588L14.8401 15.445C15.0601 15.445 15.2801 15.225 15.4341 15.005L15.8081 14.279L16.1821 15.005C16.2591 15.225 16.4791 15.368 16.7761 15.445L17.6561 15.588L16.9961 16.248Z" fill="#C2C4E3"/>
</svg>
