<?xml version="1.0" standalone="no"?><!DOCTYPE svg PUBLIC "-//W3C//DTD SVG 1.1//EN" "http://www.w3.org/Graphics/SVG/1.1/DTD/svg11.dtd"><svg t="1612694215357" class="icon" viewBox="0 0 1024 1024" version="1.1" xmlns="http://www.w3.org/2000/svg" p-id="1158" xmlns:xlink="http://www.w3.org/1999/xlink" width="200" height="200"><defs><style type="text/css"></style></defs><path d="M0 512a512 512 0 1 0 1024 0A512 512 0 1 0 0 512z" fill="#FFFFFF" p-id="1159"></path><path d="M220.16 230.4l25.6 15.36-102.4 153.6L122.88 384l97.28-153.6z m40.96 25.6l25.6 15.36-102.4 153.6-25.6-15.36L261.12 256z m35.84 25.6l25.6 15.36-102.4 153.6-25.6-15.36 102.4-153.6z m-179.2 404.48l25.6-15.36 102.4 153.6-25.6 15.36-102.4-153.6z m40.96-25.6l25.6-15.36 46.08 71.68-25.6 15.36-46.08-71.68z m35.84-25.6l25.6-15.36 102.4 153.6-25.6 15.36-102.4-153.6z m15.36 112.64l25.6-15.36 46.08 71.68-25.6 10.24-46.08-66.56zM844.8 302.08l-25.6 15.36-46.08-66.56 25.6-15.36 46.08 66.56z m20.48 107.52l-25.6 15.36-102.4-153.6 25.6-15.36 102.4 153.6z m35.84-20.48l-25.6 15.36-46.08-71.68 25.6-15.36 46.08 71.68zM768 348.16l-25.6 15.36-46.08-66.56 25.6-15.36L768 348.16z m61.44 87.04l-25.6 15.36-46.08-71.68 25.6-15.36 46.08 71.68z m-25.6 179.2l25.6 15.36-46.08 66.56-25.6-15.36 46.08-66.56z m-56.32 81.92L768 716.8l-46.08 71.68-25.6-15.36 51.2-76.8z m128-30.72l25.6 15.36-46.08 66.56-25.6-15.36 46.08-66.56z m-56.32 87.04L844.8 768l-46.08 71.68-25.6-15.36 46.08-71.68zM839.68 640l25.6 15.36-46.08 71.68-25.6-15.36L839.68 640z m-56.32 87.04l25.6 15.36-51.2 76.8-25.6-15.36 51.2-76.8z" fill="#211613" p-id="1160"></path><path d="M506.88 542.72c30.72-40.96 92.16-51.2 133.12-15.36 40.96 30.72 46.08 92.16 15.36 133.12 66.56-87.04 46.08-204.8-30.72-266.24-81.92-66.56-199.68-51.2-261.12 30.72-30.72 40.96-25.6 102.4 15.36 133.12s97.28 25.6 128-15.36z" fill="#B63139" p-id="1161"></path><path d="M506.88 542.72c-30.72 40.96-92.16 51.2-133.12 15.36s-46.08-92.16-10.24-133.12c-66.56 87.04-46.08 204.8 30.72 266.24 81.92 66.56 199.68 51.2 261.12-30.72 30.72-40.96 25.6-102.4-15.36-133.12-40.96-35.84-97.28-30.72-133.12 15.36z" fill="#18548D" p-id="1162"></path></svg>