<svg width="21" height="18" viewBox="0 0 21 18" fill="none" xmlns="http://www.w3.org/2000/svg">
<path d="M19.151 4.47529C19.151 12.1738 14.3097 17.7174 7.18919 17.9606C4.17794 18.2039 2.11499 17.2481 0.268311 15.8058C2.33127 16.0491 5.1096 15.3366 6.47381 13.8768C4.41086 13.8768 3.24629 12.6603 2.56418 11.0094H4.41086C2.56418 10.2796 1.16669 8.83718 1.16669 6.43901C1.61589 6.6823 2.08171 6.90822 3.01337 6.90822C1.39961 5.95242 0.484588 2.82438 1.63252 0.895416C3.69548 3.29359 6.22426 5.46584 10.4001 5.69175C9.23551 0.895416 15.2414 -1.53751 17.7702 1.60792C18.9347 1.36462 19.6168 0.895416 20.5152 0.391452C20.2823 1.60792 19.6002 2.32041 18.6685 2.78962C19.5836 2.78962 20.2823 2.54633 20.9644 2.07712C20.7481 3.03291 19.8331 4.00608 19.151 4.47529Z" fill="#C2C4E3"/>
</svg>
