<?xml version="1.0" standalone="no"?><!DOCTYPE svg PUBLIC "-//W3C//DTD SVG 1.1//EN" "http://www.w3.org/Graphics/SVG/1.1/DTD/svg11.dtd"><svg t="1612233203946" class="icon" viewBox="0 0 1588 1024" version="1.1" xmlns="http://www.w3.org/2000/svg" p-id="1626" xmlns:xlink="http://www.w3.org/1999/xlink" width="310.15625" height="200"><defs><style type="text/css"></style></defs><path d="M0 0h1588.476v1024H0" fill="#FFFFFF" p-id="1627"></path><path d="M0 80.558h1588.476V0H0m0 157.146h1588.476v80.558H0m0 76.587h1588.476v80.559H0m0 76.587h1588.476v80.559H0m0 77.154h1588.476v79.991H0m0 77.155h1588.476v80.558H0M0 1024h1588.476v-80.558H0" fill="#E50012" p-id="1628"></path><path d="M0 551.996h688.15V0H0" fill="#1E2380" p-id="1629"></path><path d="M56.731 66.376l17.02 13.048-6.24-20.99L84.53 45.951H62.972l-6.24-20.423-6.808 20.423H28.366l17.586 12.481-6.807 20.99L56.73 66.377z m114.598 0l17.586 13.048-6.808-20.99 17.587-12.482h-21.558L171.33 25.53l-6.24 20.423H143.53l17.02 12.481-6.24 20.99 17.019-13.047z m115.164 0l17.587 13.048-6.808-20.99 17.587-12.482H293.3l-6.808-20.423-6.808 20.423h-21.558l17.587 12.481-6.808 20.99 17.587-13.047z m115.165 0l17.019 13.048-6.24-20.99 17.019-12.482h-21.558l-6.24-20.423-6.808 20.423h-21.558l17.587 12.481-6.808 20.99 17.587-13.047z m114.597 0l17.587 13.048-6.808-20.99 17.586-12.482h-21.557l-6.808-20.423-6.808 20.423h-20.99l17.019 12.481-6.24 20.99 17.019-13.047z m115.164 0l17.587 13.048-6.808-20.99 17.02-12.482h-20.99l-6.809-20.423-6.807 20.423h-21.558l17.586 12.481-6.807 20.99 17.586-13.047z m-517.39 55.596l17.588 12.481-6.808-20.423 17.587-12.481h-21.558l-6.808-20.423-6.808 20.423H85.664l17.587 12.48-6.808 20.424 17.587-12.48z m115.165 0l17.02 12.481-6.24-20.423 17.019-12.481h-20.99l-6.809-20.423-6.807 20.423h-21.558l17.587 12.48-6.808 20.424 17.586-12.48z m114.598 0l17.586 12.481-6.807-20.423 17.586-12.481H350.6l-6.807-20.423-6.24 20.423h-21.559l17.02 12.48-6.24 20.424 17.019-12.48z m115.164 0l17.587 12.481-6.808-20.423 17.587-12.481h-21.558l-6.808-20.423-6.808 20.423h-21.557l17.586 12.48-6.807 20.424 17.586-12.48z m115.165 0l17.02 12.481-6.809-20.423 17.587-12.481h-21.558l-6.24-20.423-6.808 20.423h-21.558l17.587 12.48-6.808 20.424 17.587-12.48zM56.73 177.57l17.02 12.48-6.24-20.422 17.019-12.481H62.972l-6.24-20.424-6.808 20.424H28.366l17.586 12.48-6.807 20.424 17.586-12.481z m114.598 0l17.586 12.48-6.808-20.422 17.587-12.481h-21.558l-6.807-20.424-6.24 20.424H143.53l17.02 12.48-6.24 20.424 17.019-12.481z m115.164 0l17.587 12.48-6.808-20.422 17.587-12.481H293.3l-6.808-20.424-6.808 20.424h-21.558l17.587 12.48-6.808 20.424 17.587-12.481z m115.165 0l17.019 12.48-6.24-20.422 17.019-12.481h-21.558l-6.24-20.424-6.808 20.424h-21.558l17.587 12.48-6.808 20.424 17.587-12.481z m114.597 0l17.587 12.48-6.808-20.422 17.586-12.481h-21.557l-6.808-20.424-6.808 20.424h-20.99l17.019 12.48-6.24 20.424 17.019-12.481z m115.164 0l17.587 12.48-6.808-20.422 17.02-12.481h-20.99l-6.809-20.424-6.807 20.424h-21.558l17.586 12.48-6.807 20.424 17.586-12.481z m-517.39 55.597l17.588 12.48-6.808-20.423 17.587-12.48h-21.558l-6.808-20.424-6.808 20.423H85.664l17.587 12.481-6.808 20.424 17.587-12.481z m115.165 0l17.02 12.48-6.24-20.423 17.019-12.48h-20.99l-6.809-20.424-6.807 20.423h-21.558l17.587 12.481-6.808 20.424 17.586-12.481z m114.598 0l17.586 12.48-6.807-20.423 17.586-12.48H350.6l-6.807-20.424-6.24 20.423h-21.559l17.02 12.481-6.24 20.424 17.019-12.481z m115.164 0l17.587 12.48-6.808-20.423 17.587-12.48h-21.558l-6.808-20.424-6.808 20.423h-21.557l17.586 12.481-6.807 20.424 17.586-12.481z m115.165 0l17.02 12.48-6.809-20.423 17.587-12.48h-21.558l-6.24-20.424-6.808 20.423h-21.558l17.587 12.481-6.808 20.424 17.587-12.481zM56.73 288.762l17.02 12.481-6.24-20.423 17.019-12.48H62.972l-6.24-20.424-6.808 20.423H28.366l17.586 12.48-6.807 20.424 17.586-12.48z m114.598 0l17.586 12.481-6.808-20.423 17.587-12.48h-21.558l-6.807-20.424-6.24 20.423H143.53l17.02 12.48-6.24 20.424 17.019-12.48z m115.164 0l17.587 12.481-6.808-20.423 17.587-12.48H293.3l-6.808-20.424-6.808 20.423h-21.558l17.587 12.48-6.808 20.424 17.587-12.48z m115.165 0l17.019 12.481-6.24-20.423 17.019-12.48h-21.558l-6.24-20.424-6.808 20.423h-21.558l17.587 12.48-6.808 20.424 17.587-12.48z m114.597 0l17.587 12.481-6.808-20.423 17.586-12.48h-21.557l-6.808-20.424-6.808 20.423h-20.99l17.019 12.48-6.24 20.424 17.019-12.48z m115.164 0l17.587 12.481-6.808-20.423 17.02-12.48h-20.99l-6.809-20.424-6.807 20.423h-21.558l17.586 12.48-6.807 20.424 17.586-12.48zM114.03 344.36l17.588 12.48-6.808-20.422 17.587-12.481h-21.558l-6.808-20.424-6.808 20.424H85.664l17.587 12.48-6.808 20.424 17.587-12.481z m115.165 0l17.02 12.48-6.24-20.422 17.019-12.481h-20.99l-6.809-20.424-6.807 20.424h-21.558l17.587 12.48-6.808 20.424 17.586-12.481z m114.598 0l17.586 12.48-6.807-20.422 17.586-12.481H350.6l-6.807-20.424-6.24 20.424h-21.559l17.02 12.48-6.24 20.424 17.019-12.481z m115.164 0l17.587 12.48-6.808-20.422 17.587-12.481h-21.558l-6.808-20.424-6.808 20.424h-21.557l17.586 12.48-6.807 20.424 17.586-12.481z m115.165 0l17.02 12.48-6.809-20.422 17.587-12.481h-21.558l-6.24-20.424-6.808 20.424h-21.558l17.587 12.48-6.808 20.424 17.587-12.481zM56.73 399.956l17.02 12.48-6.24-20.423 17.019-13.048H62.972l-6.24-19.856-6.808 19.856H28.366l17.586 13.048-6.807 20.424 17.586-12.481z m114.598 0l17.586 12.48-6.808-20.423 17.587-13.048h-21.558l-6.807-19.856-6.24 19.856H143.53l17.02 13.048-6.24 20.424 17.019-12.481z m115.164 0l17.587 12.48-6.808-20.423 17.587-13.048H293.3l-6.808-19.856-6.808 19.856h-21.558l17.587 13.048-6.808 20.424 17.587-12.481z m115.165 0l17.019 12.48-6.24-20.423 17.019-13.048h-21.558l-6.24-19.856-6.808 19.856h-21.558l17.587 13.048-6.808 20.424 17.587-12.481z m114.597 0l17.587 12.48-6.808-20.423 17.586-13.048h-21.557l-6.808-19.856-6.808 19.856h-20.99l17.019 13.048-6.24 20.424 17.019-12.481z m115.164 0l17.587 12.48-6.808-20.423 17.02-13.048h-20.99l-6.809-19.856-6.807 19.856h-21.558l17.586 13.048-6.807 20.424 17.586-12.481z m-517.39 55.596l17.588 12.481-6.808-20.423 17.587-13.048h-21.558l-6.808-20.423-6.808 20.423H85.664l17.587 13.048-6.808 20.423 17.587-12.48z m115.165 0l17.02 12.481-6.24-20.423 17.019-13.048h-20.99l-6.809-20.423-6.807 20.423h-21.558l17.587 13.048-6.808 20.423 17.586-12.48z m114.598 0l17.586 12.481-6.807-20.423 17.586-13.048H350.6l-6.807-20.423-6.24 20.423h-21.559l17.02 13.048-6.24 20.423 17.019-12.48z m115.164 0l17.587 12.481-6.808-20.423 17.587-13.048h-21.558l-6.808-20.423-6.808 20.423h-21.557l17.586 13.048-6.807 20.423 17.586-12.48z m115.165 0l17.02 12.481-6.809-20.423 17.587-13.048h-21.558l-6.24-20.423-6.808 20.423h-21.558l17.587 13.048-6.808 20.423 17.587-12.48z m-517.39 55.03l17.02 13.048-6.24-20.423 17.019-13.049H62.972l-6.24-20.423-6.808 20.423H28.366l17.586 13.049-6.807 20.423 17.586-13.048z m114.598 0l17.586 13.048-6.808-20.423 17.587-13.049h-21.558l-6.807-20.423-6.24 20.423H143.53l17.02 13.049-6.24 20.423 17.019-13.048z m115.164 0l17.587 13.048-6.808-20.423 17.587-13.049H293.3l-6.808-20.423-6.808 20.423h-21.558l17.587 13.049-6.808 20.423 17.587-13.048z m115.165 0l17.019 13.048-6.24-20.423 17.019-13.049h-21.558l-6.24-20.423-6.808 20.423h-21.558l17.587 13.049-6.808 20.423 17.587-13.048z m114.597 0l17.587 13.048-6.808-20.423 17.586-13.049h-21.557l-6.808-20.423-6.808 20.423h-20.99l17.019 13.049-6.24 20.423 17.019-13.048z m115.164 0l17.587 13.048-6.808-20.423 17.02-13.049h-20.99l-6.809-20.423-6.807 20.423h-21.558l17.586 13.049-6.807 20.423 17.586-13.048z" fill="#FFFFFF" p-id="1630"></path></svg>