<?xml version="1.0" standalone="no"?><!DOCTYPE svg PUBLIC "-//W3C//DTD SVG 1.1//EN" "http://www.w3.org/Graphics/SVG/1.1/DTD/svg11.dtd"><svg t="1612694221675" class="icon" viewBox="0 0 1024 1024" version="1.1" xmlns="http://www.w3.org/2000/svg" p-id="1286" xmlns:xlink="http://www.w3.org/1999/xlink" width="200" height="200"><defs><style type="text/css"></style></defs><path d="M512 76.8h-2.56C270.336 76.8 76.8 270.848 76.8 509.44v2.56h435.2V76.8z" fill="#2F0F7D" p-id="1287"></path><path d="M511.488 446.976V512H947.2c0-22.016-1.536-44.032-4.608-65.024H511.488z" fill="#DE001A" p-id="1288"></path><path d="M927.232 381.952H511.488v65.024H942.08c-3.072-22.016-8.192-44.032-14.848-65.024z" fill="#FFFFFF" p-id="1289"></path><path d="M901.12 316.928H511.488v65.024h415.744c-6.656-22.528-15.872-44.032-26.112-65.024z" fill="#DE001A" p-id="1290"></path><path d="M861.184 251.904H511.488v65.024H901.12c-11.776-23.04-25.088-44.544-39.936-65.024z" fill="#FFFFFF" p-id="1291"></path><path d="M801.28 186.88H511.488v65.024h349.184c-17.408-23.552-37.376-45.568-59.392-65.024z" fill="#DE001A" p-id="1292"></path><path d="M705.024 121.856H511.488v65.024h289.792c-28.672-25.6-61.44-47.616-96.256-65.024z" fill="#FFFFFF" p-id="1293"></path><path d="M318.976 902.144h386.048c34.816-17.408 67.072-39.424 96.256-65.024h-578.56c28.672 25.6 61.44 47.616 96.256 65.024z" fill="#DE001A" p-id="1294"></path><path d="M222.72 837.12h578.56c22.016-19.456 41.984-41.472 59.392-65.024H162.816c17.92 23.552 37.888 45.568 59.904 65.024zM512 947.2c69.12 0 135.168-16.384 193.024-45.056H318.976c57.856 28.672 123.904 45.056 193.024 45.056z" fill="#FFFFFF" p-id="1295"></path><path d="M162.816 772.096h697.856c15.36-20.48 28.672-41.984 40.448-65.024H122.88c11.776 23.04 25.088 44.544 39.936 65.024z" fill="#DE001A" p-id="1296"></path><path d="M122.88 707.072h778.24c10.24-20.992 19.456-42.496 26.112-65.024H96.768c6.656 22.528 15.872 44.032 26.112 65.024z" fill="#FFFFFF" p-id="1297"></path><path d="M96.768 642.048h830.976c6.656-20.992 11.776-42.496 14.848-65.024H81.408c3.584 22.528 8.704 44.032 15.36 65.024z" fill="#DE001A" p-id="1298"></path><path d="M942.592 577.024c3.072-20.992 4.608-43.008 4.608-65.024H76.8c0 22.016 1.536 44.032 4.608 65.024h861.184z" fill="#FFFFFF" p-id="1299"></path><path d="M705.024 121.856C647.168 93.184 581.12 76.8 512 76.8h-0.512v45.056h193.536z" fill="#DE001A" p-id="1300"></path><path d="M148.48 323.072l-7.68 15.36-17.408 2.56 12.8 12.288-3.072 16.896 15.36-8.192 15.36 8.192-3.072-16.896 12.288-12.288-17.408-2.56-7.168-15.36z m7.68 139.264l-7.68-15.36-7.68 15.36-17.408 2.56 12.8 12.288-3.072 16.896 15.36-8.192 15.36 8.192-3.072-16.896 12.288-12.288-16.896-2.56z m35.84-157.184l15.36-8.192 15.36 8.192-2.56-17.408 12.288-12.288-17.408-2.048-7.68-15.36-7.68 15.36-17.408 2.56 12.288 12.288-2.56 16.896z m40.448 97.792l-17.408-2.56-7.68-15.36-7.68 15.36-17.408 2.56 12.288 12.288-3.072 16.896 15.36-8.192 15.36 8.192-2.048-16.896 12.288-12.288z m131.584-207.36l-7.68 15.36-17.408 2.56 12.8 12.288-3.072 17.408 15.36-8.192 15.36 8.192-3.072-17.408 12.288-12.288-17.408-2.56-7.168-15.36z m-15.36-67.584l15.36-8.192 15.36 8.192-3.072-16.896 12.288-12.288-8.704-1.536c-10.24 3.072-20.48 7.168-30.72 11.264l2.56 2.56c-0.512-0.512-3.072 16.896-3.072 16.896z m15.36 195.072l-7.68 15.36-17.408 2.56 12.8 12.288-3.072 16.896 15.36-8.192 15.36 8.192-2.56-16.896 12.288-12.288-17.408-2.56-7.68-15.36z m7.68 139.264l-7.68-15.36-7.68 15.36-17.408 2.56 12.8 12.288-3.072 16.896 15.36-8.192 15.36 8.192-3.072-16.896 12.288-12.288-16.896-2.56z m35.84-157.184l15.36-8.192 15.36 8.192-3.072-17.408 12.288-12.288-17.408-2.56-7.68-15.36-7.68 15.36-17.408 2.56 12.288 12.288-2.048 17.408z m0-115.2l15.36-8.192 15.36 8.192-3.072-16.896 12.288-12.288-17.408-2.56-7.68-15.36-7.68 15.36-17.408 2.56 12.288 12.288-2.048 16.896z m40.96 212.992l-17.408-2.56-7.68-15.36-7.68 15.36-17.408 2.56 12.288 12.288-3.072 16.896 15.36-8.192 15.36 8.192-3.072-16.896 13.312-12.288z m-340.48 29.184l-3.072-16.896 12.288-12.288-17.408-2.56-5.632-11.264c-3.584 12.8-6.656 25.6-9.728 38.912l7.168-4.096c0.512 0 16.384 8.192 16.384 8.192z m149.504-236.544l-7.68 15.36-17.408 2.56 12.288 12.288-3.072 17.408 15.36-8.192 15.36 8.192-3.072-17.408 12.288-12.288-17.408-2.56-6.656-15.36z m0 127.488l-7.68 15.36-17.408 2.56 12.288 12.288-3.072 16.896 15.36-8.192 15.36 8.192-2.048-16.896 12.288-12.288-17.408-2.56-7.68-15.36z m7.68 139.264l-7.68-15.36-7.68 15.36-17.408 2.56 12.288 12.288-3.072 16.896 15.36-8.192 15.36 8.192-3.072-16.896 12.288-12.288-16.384-2.56z m35.84-157.184l15.36-8.192 15.36 8.192-3.072-17.408 12.8-12.288-17.408-2.56-7.68-15.36-7.68 15.36-16.896 3.072 12.8 12.288-3.584 16.896z m0-115.2l15.36-8.192 15.36 8.192-3.072-16.896 12.8-12.288-17.408-2.56-7.68-15.36-7.68 15.36-16.896 2.56 12.8 12.288-3.584 16.896z m40.96 212.992l-17.408-2.56-7.68-15.36-7.68 15.36-17.408 2.56 12.8 12.288-3.072 16.896 15.36-8.192 15.36 8.192-3.072-16.896 12.8-12.288z m128.512-207.36l-7.68 15.36-17.408 3.072 12.288 12.288-3.072 17.408 15.36-8.192 15.36 8.192-3.072-17.408 12.8-12.288-17.408-2.56-7.168-15.872z m0-115.2l-7.68 15.872-17.408 2.56 12.288 12.288-2.56 16.896 15.36-8.192 15.36 8.192-3.072-16.896 12.8-12.288-17.408-2.56-7.68-15.872z m0 242.688l-7.68 15.36-17.408 2.56 12.288 12.288-3.072 16.896 15.36-8.192 15.36 8.192-2.56-16.896 12.8-12.288-17.408-2.56-7.68-15.36z m7.68 139.264l-7.68-15.36-7.68 15.36-17.408 2.56 12.288 12.288-3.072 16.896 15.36-8.192 15.36 8.192-3.072-16.896 12.8-12.288-16.896-2.56z" fill="#FFFFFF" p-id="1301"></path></svg>